<svg width="21" height="22" viewBox="0 0 21 22" fill="none" xmlns="http://www.w3.org/2000/svg">
<path d="M19.3078 1.69231H15.9232V0H14.2308V1.69231H7.46161V0H5.76931V1.69231H2.38469C1.45392 1.69231 0.692383 2.45385 0.692383 3.38462V20.3077C0.692383 21.2385 1.45392 22 2.38469 22H19.3078C20.2385 22 21.0001 21.2385 21.0001 20.3077V3.38462C21.0001 2.45385 20.2385 1.69231 19.3078 1.69231ZM19.3078 20.3077H2.38469V8.46154H19.3078V20.3077ZM19.3078 6.76923H2.38469V3.38462H5.76931V5.07692H7.46161V3.38462H14.2308V5.07692H15.9232V3.38462H19.3078V6.76923Z" fill="#0F0F0F"/>
</svg>
